<?xml version="1.0" encoding="UTF-8"?>
<svg version="1.1" xmlns="http://www.w3.org/2000/svg" width="512" height="512">
<path d="M0 0 C3.26879547 0.01847473 6.53730961 0.02050751 9.80615234 0.02026367 C11.90120687 0.02517282 13.99625949 0.03099848 16.09130859 0.0378418 C17.06008942 0.03895462 18.02887024 0.04006744 19.02700806 0.04121399 C23.67228594 0.07382065 28.04388157 0.27555922 32.61474609 1.20581055 C34.65606538 1.47924987 36.69776051 1.74989229 38.73974609 2.01831055 C52.57071036 4.02929803 65.88881498 6.7276089 79.17724609 11.14331055 C80.63880127 11.62888428 80.63880127 11.62888428 82.12988281 12.12426758 C87.99054864 14.13777852 93.61998425 16.46908597 99.23217773 19.09619141 C101.30126448 20.05981465 103.38086747 20.95911807 105.48974609 21.83081055 C108.37351396 23.09966841 110.92520216 24.57792869 113.61474609 26.20581055 C114.37529297 26.50487305 115.13583984 26.80393555 115.91943359 27.11206055 C118.78157795 28.27351043 121.41118347 29.65103511 124.11474609 31.14331055 C125.03255859 31.64733398 125.95037109 32.15135742 126.89599609 32.6706543 C127.79318359 33.17725586 128.69037109 33.68385742 129.61474609 34.20581055 C130.55318359 34.72272461 131.49162109 35.23963867 132.45849609 35.7722168 C133.52583984 36.4818457 133.52583984 36.4818457 134.61474609 37.20581055 C134.61474609 37.86581055 134.61474609 38.52581055 134.61474609 39.20581055 C136.59474609 39.86581055 138.57474609 40.52581055 140.61474609 41.20581055 C140.61474609 41.86581055 140.61474609 42.52581055 140.61474609 43.20581055 C141.21287109 43.32956055 141.81099609 43.45331055 142.42724609 43.58081055 C144.61474609 44.20581055 144.61474609 44.20581055 147.61474609 46.20581055 C147.61474609 46.86581055 147.61474609 47.52581055 147.61474609 48.20581055 C148.34822266 48.45717773 149.08169922 48.70854492 149.83740234 48.9675293 C152.82203071 50.29822858 154.67017494 51.79759181 157.05224609 54.01831055 C159.704218 56.46184988 162.35295155 58.83877578 165.17724609 61.08081055 C166.38380859 62.13268555 166.38380859 62.13268555 167.61474609 63.20581055 C167.61474609 63.86581055 167.61474609 64.52581055 167.61474609 65.20581055 C168.27474609 65.20581055 168.93474609 65.20581055 169.61474609 65.20581055 C169.61474609 65.86581055 169.61474609 66.52581055 169.61474609 67.20581055 C170.21287109 67.30893555 170.81099609 67.41206055 171.42724609 67.51831055 C173.92732895 68.30405087 174.99009692 69.17499907 176.61474609 71.20581055 C176.61474609 71.86581055 176.61474609 72.52581055 176.61474609 73.20581055 C177.27474609 73.20581055 177.93474609 73.20581055 178.61474609 73.20581055 C179.01693359 74.10299805 179.01693359 74.10299805 179.42724609 75.01831055 C180.504144 77.24908963 180.504144 77.24908963 182.23974609 78.83081055 C182.69349609 79.28456055 183.14724609 79.73831055 183.61474609 80.20581055 C183.61474609 80.86581055 183.61474609 81.52581055 183.61474609 82.20581055 C184.27474609 82.20581055 184.93474609 82.20581055 185.61474609 82.20581055 C189.64561977 92.47313028 191.05084753 101.84915349 186.61474609 112.20581055 C183.5550096 118.57929939 179.27059243 123.02963485 173.61474609 127.20581055 C172.83486328 127.78975586 172.05498047 128.37370117 171.25146484 128.9753418 C163.22870117 134.17370309 154.87898531 134.5223199 145.61474609 133.20581055 C140.71337284 131.91628969 136.81401961 130.00532622 132.61474609 127.20581055 C132.61474609 126.54581055 132.61474609 125.88581055 132.61474609 125.20581055 C131.95474609 125.20581055 131.29474609 125.20581055 130.61474609 125.20581055 C129.44268771 124.06822447 128.27713213 122.92330131 127.14208984 121.7487793 C121.29821893 115.84512454 114.68488412 110.96045188 107.95849609 106.1237793 C107.18505859 105.49084961 106.41162109 104.85791992 105.61474609 104.20581055 C105.61474609 103.54581055 105.61474609 102.88581055 105.61474609 102.20581055 C104.70724609 101.91706055 103.79974609 101.62831055 102.86474609 101.33081055 C100.29271702 100.44049279 98.00127843 99.49086642 95.61474609 98.20581055 C95.61474609 97.54581055 95.61474609 96.88581055 95.61474609 96.20581055 C94.62474609 96.20581055 93.63474609 96.20581055 92.61474609 96.20581055 C92.61474609 95.54581055 92.61474609 94.88581055 92.61474609 94.20581055 C91.95216797 94.12073242 91.28958984 94.0356543 90.60693359 93.94799805 C86.65704855 92.96826155 83.33463832 91.20553004 79.73974609 89.33081055 C66.51404968 82.50545115 53.0342799 77.64891536 38.44287109 74.78393555 C35.61474609 74.20581055 35.61474609 74.20581055 32.61474609 73.20581055 C30.9932507 73.00793314 29.3673868 72.84433316 27.73974609 72.70581055 C25.25755072 72.49326782 22.89449551 72.27190536 20.46850586 71.69873047 C16.77010234 71.05991819 13.12525537 71.04337664 9.38427734 71.0378418 C8.59381516 71.0345134 7.80335297 71.031185 6.98893738 71.02775574 C5.31888406 71.02270585 3.64882071 71.02034681 1.97875977 71.02050781 C-0.54704936 71.01833268 -3.07241321 71.00018792 -5.59814453 70.98120117 C-13.77711691 70.95214855 -21.42415825 71.12799337 -29.38525391 73.20581055 C-30.81088265 73.49942237 -32.23798779 73.78595996 -33.66650391 74.06518555 C-55.83503355 78.67203843 -77.6271873 86.34254272 -96.76025391 98.58081055 C-97.69482422 99.17764648 -98.62939453 99.77448242 -99.59228516 100.3894043 C-102.9685706 102.58517035 -106.29704223 104.84634387 -109.60791016 107.1394043 C-111.38525391 108.20581055 -111.38525391 108.20581055 -113.38525391 108.20581055 C-113.38525391 108.86581055 -113.38525391 109.52581055 -113.38525391 110.20581055 C-115.50244141 112.15112305 -115.50244141 112.15112305 -118.26025391 114.33081055 C-119.16517578 115.05526367 -120.07009766 115.7797168 -121.00244141 116.52612305 C-123.38525391 118.20581055 -123.38525391 118.20581055 -125.38525391 118.20581055 C-125.71525391 119.19581055 -126.04525391 120.18581055 -126.38525391 121.20581055 C-127.95166016 122.71362305 -127.95166016 122.71362305 -129.94775391 124.33081055 C-134.87099883 128.49868396 -140.46479773 133.3648982 -143.38525391 139.20581055 C-144.04525391 139.20581055 -144.70525391 139.20581055 -145.38525391 139.20581055 C-145.67400391 139.78331055 -145.96275391 140.36081055 -146.26025391 140.95581055 C-147.30192057 143.03914388 -148.34358724 145.12247721 -149.38525391 147.20581055 C-150.04525391 147.20581055 -150.70525391 147.20581055 -151.38525391 147.20581055 C-151.67400391 147.94831055 -151.96275391 148.69081055 -152.26025391 149.45581055 C-153.20828035 151.77320852 -154.23371302 153.98498169 -155.38525391 156.20581055 C-156.04525391 156.20581055 -156.70525391 156.20581055 -157.38525391 156.20581055 C-157.67400391 156.92768555 -157.96275391 157.64956055 -158.26025391 158.39331055 C-159.30192057 160.99747721 -160.34358724 163.60164388 -161.38525391 166.20581055 C-162.04525391 166.20581055 -162.70525391 166.20581055 -163.38525391 166.20581055 C-163.48451172 166.7162793 -163.58376953 167.22674805 -163.68603516 167.75268555 C-164.64995277 171.13447473 -166.12679584 174.25988829 -167.57275391 177.45581055 C-172.47898847 188.513904 -177.06524205 199.62575819 -179.74462891 211.4597168 C-180.22362051 213.51295521 -180.78898393 215.54638128 -181.39697266 217.56518555 C-182.42451503 221.35044044 -182.97946655 225.00140971 -183.44775391 228.89331055 C-184.30492047 235.94191163 -184.30492047 235.94191163 -184.90600586 237.91650391 C-185.62404631 241.34649133 -185.52750706 244.77201052 -185.51806641 248.26049805 C-185.5195015 249.42924973 -185.5195015 249.42924973 -185.52096558 250.62161255 C-185.52164493 252.26735515 -185.51980771 253.91310046 -185.515625 255.55883789 C-185.51028774 258.06492204 -185.51557081 260.5708258 -185.52197266 263.0769043 C-185.52131155 264.67976927 -185.52002971 266.28263414 -185.51806641 267.88549805 C-185.52110275 269.00140823 -185.52110275 269.00140823 -185.52420044 270.13986206 C-185.50578069 274.27347682 -185.18690071 278.15244836 -184.38525391 282.20581055 C-184.2329834 283.01735596 -184.08071289 283.82890137 -183.92382812 284.66503906 C-178.89032655 309.83508652 -171.35900382 334.10033263 -157.44775391 355.89331055 C-155.38525391 359.20581055 -155.38525391 359.20581055 -155.38525391 361.20581055 C-154.72525391 361.20581055 -154.06525391 361.20581055 -153.38525391 361.20581055 C-152.80775391 362.25768555 -152.23025391 363.30956055 -151.63525391 364.39331055 C-150.25858946 366.82213996 -148.89606215 368.81730024 -147.13525391 371.01831055 C-145.38525391 373.20581055 -145.38525391 373.20581055 -145.38525391 375.20581055 C-144.72525391 375.20581055 -144.06525391 375.20581055 -143.38525391 375.20581055 C-142.02348469 376.84932512 -140.69563325 378.52103711 -139.38525391 380.20581055 C-137.15788269 382.48750789 -134.90633103 384.72066977 -132.57275391 386.89331055 C-131.38525391 388.20581055 -131.38525391 388.20581055 -131.38525391 390.20581055 C-130.81291016 390.46362305 -130.24056641 390.72143555 -129.65087891 390.98706055 C-127.17396396 392.31946997 -125.2511373 393.85637173 -123.13525391 395.70581055 C-122.42884766 396.31424805 -121.72244141 396.92268555 -120.99462891 397.54956055 C-119.38525391 399.20581055 -119.38525391 399.20581055 -119.38525391 401.20581055 C-118.66982422 401.46362305 -117.95439453 401.72143555 -117.21728516 401.98706055 C-114.2136528 403.2796582 -111.75020019 404.83358144 -109.07275391 406.70581055 C-108.18974609 407.31424805 -107.30673828 407.92268555 -106.39697266 408.54956055 C-105.73310547 409.09612305 -105.06923828 409.64268555 -104.38525391 410.20581055 C-104.38525391 410.86581055 -104.38525391 411.52581055 -104.38525391 412.20581055 C-102.40525391 412.86581055 -100.42525391 413.52581055 -98.38525391 414.20581055 C-98.38525391 414.86581055 -98.38525391 415.52581055 -98.38525391 416.20581055 C-97.06525391 416.20581055 -95.74525391 416.20581055 -94.38525391 416.20581055 C-94.38525391 416.86581055 -94.38525391 417.52581055 -94.38525391 418.20581055 C-93.82322266 418.31538086 -93.26119141 418.42495117 -92.68212891 418.5378418 C-90.03120644 419.30877333 -88.01155605 420.48745477 -85.63525391 421.89331055 C-47.46124391 443.14639755 0.6227203 447.04368999 42.61474609 437.20581055 C43.34097168 437.04177734 44.06719727 436.87774414 44.81542969 436.70874023 C52.19335581 435.01792963 59.072639 432.80269469 65.88818359 429.4753418 C68.82944992 428.105841 71.80690456 427.03833109 74.86474609 425.95581055 C85.3743558 421.98968403 94.82238756 415.63701111 103.97802734 409.2019043 C105.61474609 408.20581055 105.61474609 408.20581055 107.61474609 408.20581055 C107.61474609 407.54581055 107.61474609 406.88581055 107.61474609 406.20581055 C109.46276327 404.89890014 111.40813139 403.83328894 113.37646484 402.7175293 C116.17427089 400.8279116 118.2716248 398.64531556 120.61474609 396.20581055 C123.39706583 393.34241371 126.19239366 390.49201298 128.98974609 387.64331055 C130.08416016 386.51119141 130.08416016 386.51119141 131.20068359 385.35620117 C138.94576677 377.50738921 146.40556797 372.97285516 157.73974609 372.76831055 C166.75391026 372.89239934 173.46891884 375.4680001 180.92724609 380.39331055 C187.49758356 387.26924511 191.81322983 393.60192814 192.61474609 403.20581055 C192.70755859 404.14295898 192.80037109 405.08010742 192.89599609 406.0456543 C193.38103007 415.27342566 191.19638335 423.74728968 185.34912109 431.02612305 C183.18760581 433.250392 181.08358404 435.32871765 178.61474609 437.20581055 C177.95474609 437.20581055 177.29474609 437.20581055 176.61474609 437.20581055 C176.61474609 437.86581055 176.61474609 438.52581055 176.61474609 439.20581055 C175.95474609 439.20581055 175.29474609 439.20581055 174.61474609 439.20581055 C174.61474609 439.86581055 174.61474609 440.52581055 174.61474609 441.20581055 C173.95474609 441.20581055 173.29474609 441.20581055 172.61474609 441.20581055 C171.95474609 442.52581055 171.29474609 443.84581055 170.61474609 445.20581055 C169.95474609 445.20581055 169.29474609 445.20581055 168.61474609 445.20581055 C168.61474609 445.86581055 168.61474609 446.52581055 168.61474609 447.20581055 C163.74988123 452.74635109 163.74988123 452.74635109 159.61474609 453.20581055 C159.61474609 453.86581055 159.61474609 454.52581055 159.61474609 455.20581055 C157.93505859 456.71362305 157.93505859 456.71362305 155.73974609 458.33081055 C155.02044922 458.86963867 154.30115234 459.4084668 153.56005859 459.96362305 C151.61474609 461.20581055 151.61474609 461.20581055 149.61474609 461.20581055 C149.61474609 461.86581055 149.61474609 462.52581055 149.61474609 463.20581055 C147.96474609 463.86581055 146.31474609 464.52581055 144.61474609 465.20581055 C144.61474609 465.86581055 144.61474609 466.52581055 144.61474609 467.20581055 C143.62474609 467.20581055 142.63474609 467.20581055 141.61474609 467.20581055 C141.61474609 467.86581055 141.61474609 468.52581055 141.61474609 469.20581055 C140.29474609 469.53581055 138.97474609 469.86581055 137.61474609 470.20581055 C137.61474609 470.86581055 137.61474609 471.52581055 137.61474609 472.20581055 C136.66212891 472.74850586 135.70951172 473.29120117 134.72802734 473.8503418 C133.46108366 474.57296894 132.1941575 475.29562682 130.92724609 476.01831055 C130.30140625 476.37473633 129.67556641 476.73116211 129.03076172 477.09838867 C126.28048825 478.66791646 123.54311844 480.24890769 120.82958984 481.8815918 C118.16069184 483.47728214 115.39622729 484.81506995 112.61474609 486.20581055 C111.26032168 486.99703617 109.90618042 487.78874659 108.55224609 488.58081055 C103.86598437 491.20260521 99.01579585 493.09501757 93.98583984 494.95581055 C91.82064647 495.75866325 89.66561096 496.58978431 87.52490234 497.45581055 C74.47273775 502.72276221 59.7289029 507.58372953 45.61474609 508.76831055 C42.81961484 508.82747102 42.81961484 508.82747102 40.61474609 510.20581055 C27.27389033 512.74862499 13.70295403 512.60453237 0.17724609 512.58081055 C-0.9336438 512.58059906 -2.04453369 512.58038757 -3.18908691 512.58016968 C-18.32928313 512.55136579 -32.9753941 512.2158263 -47.79199219 508.80004883 C-50.51033783 508.17714794 -53.23728 507.63846725 -55.97509766 507.1081543 C-74.33468899 503.41615 -93.821593 497.4865618 -109.91259766 487.6628418 C-112.31048112 486.16519866 -112.31048112 486.16519866 -114.77587891 485.25268555 C-118.06248361 483.93410761 -121.07655646 482.22415262 -124.13525391 480.45581055 C-124.75070068 480.10164063 -125.36614746 479.7474707 -126.00024414 479.38256836 C-132.00630843 475.89573402 -137.842457 472.25110371 -143.26025391 467.89331055 C-145.36894174 466.02106582 -145.36894174 466.02106582 -148.38525391 465.20581055 C-148.38525391 464.54581055 -148.38525391 463.88581055 -148.38525391 463.20581055 C-149.37525391 463.20581055 -150.36525391 463.20581055 -151.38525391 463.20581055 C-151.38525391 462.54581055 -151.38525391 461.88581055 -151.38525391 461.20581055 C-152.04525391 461.20581055 -152.70525391 461.20581055 -153.38525391 461.20581055 C-153.38525391 460.54581055 -153.38525391 459.88581055 -153.38525391 459.20581055 C-153.92150391 458.95831055 -154.45775391 458.71081055 -155.01025391 458.45581055 C-157.9676521 456.89928518 -160.68249441 455.17145381 -163.38525391 453.20581055 C-163.38525391 452.54581055 -163.38525391 451.88581055 -163.38525391 451.20581055 C-164.04525391 451.20581055 -164.70525391 451.20581055 -165.38525391 451.20581055 C-165.38525391 450.54581055 -165.38525391 449.88581055 -165.38525391 449.20581055 C-166.49900391 448.86549805 -166.49900391 448.86549805 -167.63525391 448.51831055 C-170.98404312 446.92002479 -172.10954956 445.13171614 -174.38525391 442.20581055 C-175.63714193 441.08020948 -176.91014772 439.97787114 -178.19775391 438.89331055 C-183.45655492 434.3913837 -188.47780624 429.571145 -191.38525391 423.20581055 C-192.04525391 423.20581055 -192.70525391 423.20581055 -193.38525391 423.20581055 C-195.33056641 421.08862305 -195.33056641 421.08862305 -197.51025391 418.33081055 C-198.23470703 417.42588867 -198.95916016 416.5209668 -199.70556641 415.58862305 C-201.38525391 413.20581055 -201.38525391 413.20581055 -201.38525391 411.20581055 C-202.04525391 411.20581055 -202.70525391 411.20581055 -203.38525391 411.20581055 C-203.71525391 409.88581055 -204.04525391 408.56581055 -204.38525391 407.20581055 C-205.04525391 407.20581055 -205.70525391 407.20581055 -206.38525391 407.20581055 C-207.54150391 405.79956055 -207.54150391 405.79956055 -208.88525391 403.70581055 C-209.67996094 402.46831055 -209.67996094 402.46831055 -210.49072266 401.20581055 C-211.11591797 400.21581055 -211.74111328 399.22581055 -212.38525391 398.20581055 C-213.1518246 397.01808046 -213.91877457 395.8305951 -214.68603516 394.64331055 C-228.07241057 373.77071571 -239.35947888 351.36394054 -245.38525391 327.20581055 C-245.78048802 325.83211042 -246.18054083 324.45979085 -246.58447266 323.08862305 C-254.22303203 296.71424677 -254.89771562 270.8957776 -254.62353516 243.63549805 C-254.61596191 242.69823883 -254.60838867 241.76097961 -254.60058594 240.7953186 C-254.58793701 239.94061981 -254.57528809 239.08592102 -254.56225586 238.20532227 C-254.55241165 237.45403046 -254.54256744 236.70273865 -254.53242493 235.92868042 C-254.38525391 234.20581055 -254.38525391 234.20581055 -253.38525391 233.20581055 C-253.17249964 231.00144 -253.01557334 228.7915866 -252.88525391 226.58081055 C-252.476327 220.29355938 -251.93651603 214.31731561 -250.38525391 208.20581055 C-250.03213884 206.68563749 -249.68209146 205.16474985 -249.33447266 203.64331055 C-245.30488813 186.20429823 -245.30488813 186.20429823 -242.33837891 177.8815918 C-241.68209241 176.03914814 -241.06981381 174.18063023 -240.49462891 172.3112793 C-238.32434552 165.29464275 -235.36329505 158.93771636 -232.00244141 152.43237305 C-230.1580986 148.7525973 -228.70857621 145.09793497 -227.38525391 141.20581055 C-226.72525391 141.20581055 -226.06525391 141.20581055 -225.38525391 141.20581055 C-225.27439453 140.64893555 -225.16353516 140.09206055 -225.04931641 139.51831055 C-223.67748323 134.74110326 -220.82118783 130.50929381 -218.38525391 126.20581055 C-217.76392578 125.08819336 -217.14259766 123.97057617 -216.50244141 122.8190918 C-215.88626953 121.72983398 -215.27009766 120.64057617 -214.63525391 119.51831055 C-213.77673828 117.99657227 -213.77673828 117.99657227 -212.90087891 116.4440918 C-212.40072266 115.70545898 -211.90056641 114.96682617 -211.38525391 114.20581055 C-210.72525391 114.20581055 -210.06525391 114.20581055 -209.38525391 114.20581055 C-209.09650391 113.46331055 -208.80775391 112.72081055 -208.51025391 111.95581055 C-208.13900391 111.04831055 -207.76775391 110.14081055 -207.38525391 109.20581055 C-207.11712891 108.54581055 -206.84900391 107.88581055 -206.57275391 107.20581055 C-204.92651404 104.43319604 -202.66716667 102.48772331 -200.38525391 100.20581055 C-198.52974304 97.83043673 -196.72226675 95.42662845 -194.93603516 92.9987793 C-194.42427734 92.40709961 -193.91251953 91.81541992 -193.38525391 91.20581055 C-192.72525391 91.20581055 -192.06525391 91.20581055 -191.38525391 91.20581055 C-191.11712891 90.6334668 -190.84900391 90.06112305 -190.57275391 89.47143555 C-189.34392755 87.1269642 -187.96003214 85.08176117 -186.38525391 82.95581055 C-185.86962891 82.2494043 -185.35400391 81.54299805 -184.82275391 80.81518555 C-184.34837891 80.2840918 -183.87400391 79.75299805 -183.38525391 79.20581055 C-182.72525391 79.20581055 -182.06525391 79.20581055 -181.38525391 79.20581055 C-181.38525391 78.54581055 -181.38525391 77.88581055 -181.38525391 77.20581055 C-180.72525391 77.20581055 -180.06525391 77.20581055 -179.38525391 77.20581055 C-179.38525391 76.54581055 -179.38525391 75.88581055 -179.38525391 75.20581055 C-177.88916016 73.76831055 -177.88916016 73.76831055 -175.94775391 72.20581055 C-173.23337152 70.06056011 -173.23337152 70.06056011 -171.38525391 67.20581055 C-170.72525391 67.20581055 -170.06525391 67.20581055 -169.38525391 67.20581055 C-169.38525391 66.54581055 -169.38525391 65.88581055 -169.38525391 65.20581055 C-168.39525391 64.87581055 -167.40525391 64.54581055 -166.38525391 64.20581055 C-165.72525391 63.21581055 -165.06525391 62.22581055 -164.38525391 61.20581055 C-163.39525391 61.20581055 -162.40525391 61.20581055 -161.38525391 61.20581055 C-160.72525391 59.88581055 -160.06525391 58.56581055 -159.38525391 57.20581055 C-158.72525391 57.20581055 -158.06525391 57.20581055 -157.38525391 57.20581055 C-157.38525391 56.54581055 -157.38525391 55.88581055 -157.38525391 55.20581055 C-156.39525391 55.20581055 -155.40525391 55.20581055 -154.38525391 55.20581055 C-154.38525391 54.54581055 -154.38525391 53.88581055 -154.38525391 53.20581055 C-153.39525391 53.20581055 -152.40525391 53.20581055 -151.38525391 53.20581055 C-150.72525391 51.88581055 -150.06525391 50.56581055 -149.38525391 49.20581055 C-148.39525391 49.20581055 -147.40525391 49.20581055 -146.38525391 49.20581055 C-146.38525391 48.54581055 -146.38525391 47.88581055 -146.38525391 47.20581055 C-144.16437145 45.58765421 -141.95755253 44.10165879 -139.63525391 42.64331055 C-139.00103516 42.23145508 -138.36681641 41.81959961 -137.71337891 41.39526367 C-134.63003397 39.43284309 -131.95610733 37.95682337 -128.38525391 37.20581055 C-128.38525391 36.54581055 -128.38525391 35.88581055 -128.38525391 35.20581055 C-127.39525391 35.20581055 -126.40525391 35.20581055 -125.38525391 35.20581055 C-125.38525391 34.54581055 -125.38525391 33.88581055 -125.38525391 33.20581055 C-124.55896484 32.79331055 -123.73267578 32.38081055 -122.88134766 31.95581055 C-120.43388239 30.73071062 -117.98862924 29.50180404 -115.54541016 28.26831055 C-114.1795388 27.5807826 -112.81365317 26.89328303 -111.44775391 26.20581055 C-110.77035156 25.86291992 -110.09294922 25.5200293 -109.39501953 25.16674805 C-102.6553457 21.78075659 -95.75915094 18.90671162 -88.69775391 16.26831055 C-88.06675781 16.02918945 -87.43576172 15.79006836 -86.78564453 15.54370117 C-84.65834797 14.74622798 -82.52410338 13.97177728 -80.38525391 13.20581055 C-79.06968506 12.73304687 -79.06968506 12.73304687 -77.72753906 12.25073242 C-70.29912923 9.67192572 -62.78312696 7.73075198 -55.11425781 6.02319336 C-53.14873431 5.58382393 -51.1869904 5.12983348 -49.22509766 4.67456055 C-32.73631967 0.91007049 -16.88165528 -0.09888083 0 0 Z " fill="#F6F6F7" transform="translate(270.38525390625,-0.205810546875)"/>
<path d="M0 0 C1.22847656 -0.00515625 2.45695312 -0.0103125 3.72265625 -0.015625 C6.9375 0.25 6.9375 0.25 9.9375 2.25 C9.9375 2.91 9.9375 3.57 9.9375 4.25 C10.453125 4.476875 10.96875 4.70375 11.5 4.9375 C14.83297005 6.73217618 18.08453671 8.74965015 20.9375 11.25 C20.9375 11.91 20.9375 12.57 20.9375 13.25 C21.96230469 13.6521875 21.96230469 13.6521875 23.0078125 14.0625 C27.50188796 15.88409859 31.92812037 17.8612617 36.3671875 19.8125 C51.57115925 25.9340116 66.26641441 26.84837694 81.9375 22.25 C83.13375 21.940625 84.33 21.63125 85.5625 21.3125 C93.02006311 18.96474865 99.47427791 16.22148917 105.83203125 11.6171875 C108.11493859 10.13478014 110.38708561 9.18470685 112.9375 8.25 C112.9375 7.59 112.9375 6.93 112.9375 6.25 C113.5975 6.25 114.2575 6.25 114.9375 6.25 C114.9375 5.59 114.9375 4.93 114.9375 4.25 C115.5975 4.25 116.2575 4.25 116.9375 4.25 C116.9375 3.59 116.9375 2.93 116.9375 2.25 C122.53363234 -0.321752 127.86852462 -0.46548253 133.9375 0.25 C137 2.1875 137 2.1875 138.9375 4.25 C139.9275 4.58 140.9175 4.91 141.9375 5.25 C146.46457993 11.97594732 147.00005061 18.2762506 145.9375 26.25 C141.45327096 41.64903334 130.78927616 56.7044899 117.9375 66.25 C117.2775 66.25 116.6175 66.25 115.9375 66.25 C115.9375 66.91 115.9375 67.57 115.9375 68.25 C112.9675 69.24 112.9675 69.24 109.9375 70.25 C109.9375 70.91 109.9375 71.57 109.9375 72.25 C99.215177 77.9533633 89.10610617 82.25257326 76.9375 83.25 C76.6075 83.58 76.2775 83.91 75.9375 84.25 C74.05811661 84.34979693 72.17499886 84.38080714 70.29296875 84.3828125 C69.14119141 84.38410156 67.98941406 84.38539063 66.80273438 84.38671875 C65.58908203 84.38285156 64.37542969 84.37898438 63.125 84.375 C61.32192383 84.38080078 61.32192383 84.38080078 59.48242188 84.38671875 C58.32677734 84.38542969 57.17113281 84.38414062 55.98046875 84.3828125 C54.91852295 84.38168457 53.85657715 84.38055664 52.76245117 84.37939453 C50.29377719 84.26631898 48.2917843 83.94639659 45.9375 83.25 C45.0815625 83.05921875 44.225625 82.8684375 43.34375 82.671875 C30.93080196 79.80221497 15.7650736 74.94715548 6.9375 65.25 C6.15375 64.46625 5.37 63.6825 4.5625 62.875 C3.69625 62.00875 2.83 61.1425 1.9375 60.25 C1.133125 59.486875 0.32875 58.72375 -0.5 57.9375 C-9.0625 48.95731707 -9.0625 48.95731707 -9.0625 45.25 C-9.7225 45.25 -10.3825 45.25 -11.0625 45.25 C-17.16153937 33.78576289 -21.63234539 24.56647158 -19.0625 11.25 C-17.02879371 6.47079021 -13.65776558 3.90743097 -9.34375 1.15234375 C-6.17454012 -0.10123071 -3.39699232 -0.01428809 0 0 Z " fill="#EBA82A" transform="translate(215.0625,298.75)"/>
<path d="M0 0 C0.8146875 0.19464844 1.629375 0.38929688 2.46875 0.58984375 C12.82254583 3.29013927 21.71426007 9.1863079 29 17 C29 17.66 29 18.32 29 19 C29.66 19 30.32 19 31 19 C33.96458457 22.22237454 35.36589518 25.98282566 37 30 C37.51691406 31.0621875 38.03382813 32.124375 38.56640625 33.21875 C40.28411213 37.22974764 40.48213185 40.8663259 40.4375 45.1875 C40.45748047 45.88552734 40.47746094 46.58355469 40.49804688 47.30273438 C40.49471347 50.80614794 40.24952268 52.67362229 38.09765625 55.48828125 C36 57 36 57 34 57 C34 57.66 34 58.32 34 59 C26.85459608 60.1109189 19.82339376 60.14478406 12.6015625 60.1328125 C11.33025482 60.13376923 10.05894714 60.13472595 8.74911499 60.13571167 C6.07473278 60.13638978 3.4004431 60.13506894 0.72607422 60.13037109 C-2.70379459 60.12463963 -6.13358572 60.12798143 -9.56345177 60.13394356 C-12.84178318 60.13841607 -16.12010508 60.13529081 -19.3984375 60.1328125 C-20.63169769 60.13483673 -21.86495789 60.13686096 -23.1355896 60.13894653 C-24.27082062 60.13579437 -25.40605164 60.13264221 -26.57568359 60.12939453 C-27.5774765 60.12859894 -28.57926941 60.12780334 -29.61141968 60.12698364 C-32 60 -32 60 -34 59 C-34.52718344 57.05601108 -35.04625644 55.1087514 -35.4921875 53.14453125 C-36.15017352 50.36580569 -37.05726562 47.69352679 -38 45 C-38.66 45 -39.32 45 -40 45 C-40.20625 44.05125 -40.4125 43.1025 -40.625 42.125 C-41.70833333 38.70833333 -41.70833333 38.70833333 -45.125 37.625 C-46.07375 37.41875 -47.0225 37.2125 -48 37 C-48 36.34 -48 35.68 -48 35 C-49.99508067 34.31875294 -51.99638693 33.65572791 -54 33 C-55.5778125 32.4740625 -55.5778125 32.4740625 -57.1875 31.9375 C-62.0994939 30.72963265 -66.96343887 30.34609281 -72 30 C-71.32188249 26.45475405 -70.62402449 23.24804899 -69 20 C-68.01 19.67 -67.02 19.34 -66 19 C-65.69835937 18.22527344 -65.39671875 17.45054687 -65.0859375 16.65234375 C-62.19824978 9.59932229 -51.74668645 5.41381773 -45.1796875 2.2890625 C-31.32824307 -3.32638794 -14.41909476 -4.0363311 0 0 Z " fill="#EA5562" transform="translate(408,255)"/>
<path d="M0 0 C1.9154322 1.61583033 3.72527873 3.15293143 5.34765625 5.0625 C5.34765625 5.7225 5.34765625 6.3825 5.34765625 7.0625 C6.00765625 7.0625 6.66765625 7.0625 7.34765625 7.0625 C8.05258518 8.28175475 8.73591526 9.5135106 9.41015625 10.75 C9.79300781 11.43449219 10.17585938 12.11898438 10.5703125 12.82421875 C11.53330181 15.59704726 11.12418357 17.27383899 10.34765625 20.0625 C9.06890625 20.11148438 7.79015625 20.16046875 6.47265625 20.2109375 C4.76430403 20.28602991 3.05597166 20.36157487 1.34765625 20.4375 C0.08888672 20.48390625 0.08888672 20.48390625 -1.1953125 20.53125 C-10.09273749 20.94508372 -19.66208033 22.33132475 -26.3828125 28.703125 C-27.90581041 30.43294979 -29.29869591 32.19804165 -30.65234375 34.0625 C-31.20921875 34.825625 -31.76609375 35.58875 -32.33984375 36.375 C-33.61429224 38.984585 -34.41805895 41.44869753 -35.234375 44.23046875 C-35.50096924 45.13434326 -35.76756348 46.03821777 -36.04223633 46.96948242 C-36.24357178 47.66017822 -36.44490723 48.35087402 -36.65234375 49.0625 C-44.23279363 49.16402851 -51.81306775 49.23401993 -59.39404297 49.28222656 C-61.97223463 49.30232563 -64.55038079 49.32960941 -67.12841797 49.36425781 C-70.83702836 49.41284847 -74.54503531 49.43548658 -78.25390625 49.453125 C-79.9792308 49.48409271 -79.9792308 49.48409271 -81.7394104 49.51568604 C-88.0081366 49.51743859 -91.9498136 49.39082091 -96.65234375 45.0625 C-100.11195378 39.87308496 -99.39360059 33.12318604 -98.65234375 27.0625 C-96.51193865 18.97864861 -92.1712622 11.34600412 -86.65234375 5.0625 C-85.99234375 5.0625 -85.33234375 5.0625 -84.65234375 5.0625 C-84.65234375 4.4025 -84.65234375 3.7425 -84.65234375 3.0625 C-83.99234375 3.0625 -83.33234375 3.0625 -82.65234375 3.0625 C-82.65234375 2.4025 -82.65234375 1.7425 -82.65234375 1.0625 C-58.01867172 -17.03091252 -25.04211992 -18.29291823 0 0 Z " fill="#80CDAC" transform="translate(218.65234375,264.9375)"/>
<path d="M0 0 C0 0.66 0 1.32 0 2 C0.66 2 1.32 2 2 2 C2 2.66 2 3.32 2 4 C2.66 4 3.32 4 4 4 C4 4.66 4 5.32 4 6 C4.66 6 5.32 6 6 6 C7.4375 7.9765625 7.4375 7.9765625 9 10.625 C9.515625 11.48351562 10.03125 12.34203125 10.5625 13.2265625 C14.81462751 21.43039546 14.90057457 29.68661001 13.375 38.6875 C11.42114688 43.39450978 9.03849417 47.89638151 6 52 C5.34 52 4.68 52 4 52 C4 52.66 4 53.32 4 54 C2.49609375 55.40234375 2.49609375 55.40234375 0.4375 56.9375 C-0.22378906 57.44152344 -0.88507813 57.94554687 -1.56640625 58.46484375 C-10.20926988 63.91692306 -19.02247133 64.36616093 -29 63 C-38.69879283 60.00177833 -45.74613165 52.52892064 -50.5 43.75 C-51.87005065 40.74550295 -52.41741667 38.33933338 -52 35 C-52.66 35 -53.32 35 -54 35 C-54.74611412 21.59067132 -51.59395835 14.85219892 -43.90234375 4.08984375 C-43.27457031 3.40019531 -42.64679688 2.71054688 -42 2 C-41.01 2 -40.02 2 -39 2 C-39 1.34 -39 0.68 -39 0 C-24.60712403 -7.85065962 -14.85441012 -6.22186266 0 0 Z " fill="#E95561" transform="translate(408,180)"/>
<path d="M0 0 C0 0.66 0 1.32 0 2 C0.556875 2.2475 1.11375 2.495 1.6875 2.75 C8.70457387 6.5430129 12.45535022 11.92017238 14.7578125 19.4921875 C17.23056336 30.67180757 16.23097347 39.93960946 10.40625 49.9296875 C5.91584206 56.54056585 -2.43022872 61.18326125 -10.0625 63.3125 C-21.18702038 65.25487657 -29.5629018 63.26155142 -39.12890625 57.4375 C-39.74636719 56.963125 -40.36382812 56.48875 -41 56 C-41 55.34 -41 54.68 -41 54 C-41.66 54 -42.32 54 -43 54 C-51.06970821 41.07743764 -52.54205838 33.34941186 -51 18 C-50.34 18 -49.68 18 -49 18 C-48.88527344 17.42765625 -48.77054688 16.8553125 -48.65234375 16.265625 C-47.93817644 13.78528344 -46.92692128 11.93631303 -45.5625 9.75 C-45.13066406 9.04359375 -44.69882813 8.3371875 -44.25390625 7.609375 C-43.84011719 7.07828125 -43.42632812 6.5471875 -43 6 C-42.34 6 -41.68 6 -41 6 C-41 5.34 -41 4.68 -41 4 C-39.4609375 2.5625 -39.4609375 2.5625 -37.375 1 C-36.70210938 0.484375 -36.02921875 -0.03125 -35.3359375 -0.5625 C-24.77466636 -7.06174378 -10.69286113 -5.07457816 0 0 Z " fill="#EBA82A" transform="translate(298,226)"/>
<path d="M0 0 C2.86487828 0.95495943 5.57684241 2.01303058 8.27734375 3.36328125 C8.27734375 4.02328125 8.27734375 4.68328125 8.27734375 5.36328125 C8.85484375 5.46640625 9.43234375 5.56953125 10.02734375 5.67578125 C12.63395533 6.4722459 14.25087485 7.55393402 16.27734375 9.36328125 C16.27734375 10.02328125 16.27734375 10.68328125 16.27734375 11.36328125 C16.93734375 11.36328125 17.59734375 11.36328125 18.27734375 11.36328125 C22.27734375 17.98828125 22.27734375 17.98828125 22.27734375 21.36328125 C22.93734375 21.36328125 23.59734375 21.36328125 24.27734375 21.36328125 C24.61443283 23.44601019 24.94687491 25.52949162 25.27734375 27.61328125 C25.46296875 28.7734375 25.64859375 29.93359375 25.83984375 31.12890625 C26.27734375 34.36328125 26.27734375 34.36328125 26.27734375 38.36328125 C25.61734375 38.36328125 24.95734375 38.36328125 24.27734375 38.36328125 C24.60734375 39.35328125 24.93734375 40.34328125 25.27734375 41.36328125 C22.66337062 49.75551076 18.27154878 56.87826663 11.27734375 62.36328125 C10.28734375 62.36328125 9.29734375 62.36328125 8.27734375 62.36328125 C8.27734375 63.02328125 8.27734375 63.68328125 8.27734375 64.36328125 C0.15871526 68.69564354 -9.40714248 69.97691936 -18.22265625 67.30078125 C-25.59100398 64.42837451 -31.56123685 61.30940988 -35.72265625 54.36328125 C-35.72265625 53.70328125 -35.72265625 53.04328125 -35.72265625 52.36328125 C-36.38265625 52.36328125 -37.04265625 52.36328125 -37.72265625 52.36328125 C-42.24536416 43.01500552 -42.14981805 34.48464274 -41.72265625 24.36328125 C-41.06265625 24.36328125 -40.40265625 24.36328125 -39.72265625 24.36328125 C-39.54669922 23.26886719 -39.54669922 23.26886719 -39.3671875 22.15234375 C-38.7161795 19.33525456 -37.80856379 17.25801248 -36.41015625 14.73828125 C-36.00152344 13.98289063 -35.59289062 13.2275 -35.171875 12.44921875 C-33.58558361 10.16598532 -32.07149617 8.83540847 -29.72265625 7.36328125 C-29.06265625 7.36328125 -28.40265625 7.36328125 -27.72265625 7.36328125 C-27.72265625 6.70328125 -27.72265625 6.04328125 -27.72265625 5.36328125 C-26.95179688 5.01394531 -26.1809375 4.66460937 -25.38671875 4.3046875 C-24.38382813 3.84964844 -23.3809375 3.39460937 -22.34765625 2.92578125 C-21.34992188 2.47332031 -20.3521875 2.02085937 -19.32421875 1.5546875 C-13.04623758 -1.32036394 -6.8264988 -1.5964409 0 0 Z " fill="#7FCBAA" transform="translate(187.72265625,174.63671875)"/>
<path d="M0 0 C2.43818451 0.1162497 4.87516121 0.24289492 7.3125 0.375 C7.98345703 0.4059375 8.65441406 0.436875 9.34570312 0.46875 C13.2991533 0.69147959 17.04914514 1.18632103 20.92578125 2 C27.5410712 3.22327115 34.04874845 3.35007818 40.76171875 3.4140625 C42.03352493 3.43342865 43.30533112 3.4527948 44.61567688 3.4727478 C47.95774007 3.52201768 51.29970411 3.56344206 54.64190674 3.60089111 C58.06800731 3.64127034 61.49395032 3.69220577 64.91992188 3.7421875 C71.613179 3.83773135 78.30650619 3.92291488 85 4 C85 4.33 85 4.66 85 5 C73.75620298 6.1049043 62.5399548 6.28043496 51.25 6.3125 C50.30333466 6.31578308 49.35666931 6.31906616 48.38131714 6.32244873 C11.78619667 6.36344733 11.78619667 6.36344733 0 0 Z " fill="#8E929D" transform="translate(216,506)"/>
<path d="M0 0 C0.6875 1.6875 0.6875 1.6875 1 4 C-0.25 6.30859375 -0.25 6.30859375 -2 9 C-3.05126991 11.34619353 -4.05091201 13.67643204 -5 16.0625 C-5.26272705 16.71863281 -5.5254541 17.37476563 -5.79614258 18.05078125 C-7.75827495 23.08320275 -9.14918319 28.13331721 -10.34765625 33.40234375 C-11.20708262 36.82461042 -12.50632549 39.80896809 -14 43 C-14.33 43.99 -14.66 44.98 -15 46 C-15.66 45.67 -16.32 45.34 -17 45 C-15.90337337 41.34887839 -14.78417715 37.70528299 -13.64599609 34.06689453 C-13.20622482 32.65982591 -12.76915433 31.25191097 -12.33447266 29.84326172 C-9.07618555 19.34894846 -5.25373395 9.66811395 0 0 Z " fill="#2D3249" transform="translate(40,149)"/>
<path d="M0 0 C8.7272173 0.34480831 17.30969975 1.04241443 25.9375 2.4375 C26.72431152 2.55971924 27.51112305 2.68193848 28.32177734 2.80786133 C30.22831591 3.13265243 32.11732223 3.55739072 34 4 C34.495 4.99 34.495 4.99 35 6 C27.60730836 5.57207973 20.31494742 4.68395292 13 3.5625 C12.1752417 3.44028076 11.3504834 3.31806152 10.50073242 3.19213867 C9.71674072 3.06814697 8.93274902 2.94415527 8.125 2.81640625 C7.42632812 2.70756104 6.72765625 2.59871582 6.0078125 2.48657227 C3.79563031 1.95047315 1.99355074 1.0858929 0 0 Z " fill="#52576B" transform="translate(216,506)"/>
<path d="M0 0 C0.66 0.33 1.32 0.66 2 1 C-0.24979947 5.14476479 -3.05140357 8.3863603 -6.375 11.6875 C-6.84421875 12.17283203 -7.3134375 12.65816406 -7.796875 13.15820312 C-10.65556562 16.02084221 -13.12911334 17.79650615 -17 19 C-15.625 16.5 -15.625 16.5 -14 14 C-13.34 14 -12.68 14 -12 14 C-12 13.34 -12 12.68 -12 12 C-11.34 12 -10.68 12 -10 12 C-10 11.34 -10 10.68 -10 10 C-8.50390625 8.5625 -8.50390625 8.5625 -6.5625 7 C-3.84811762 4.85474956 -3.84811762 4.85474956 -2 2 C-1.34 2 -0.68 2 0 2 C0 1.34 0 0.68 0 0 Z " fill="#7F8392" transform="translate(101,65)"/>
<path d="M0 0 C2 2 2 2 2.5 5.5625 C2.665 6.696875 2.83 7.83125 3 9 C3.66 9.33 4.32 9.66 5 10 C4.67 14.95 4.34 19.9 4 25 C1.96593625 20.9318725 1.43738543 18.09730321 0.875 13.625 C0.70742188 12.33851563 0.53984375 11.05203125 0.3671875 9.7265625 C0.04426212 6.44921341 -0.07128319 3.2892102 0 0 Z " fill="#65687A" transform="translate(16,275)"/>
<path d="M0 0 C0 4.99409614 -3.1426306 8.07667911 -6.4375 11.625 C-8.87309363 13.88237946 -11.37137188 15.97220116 -14 18 C-12.51516897 14.76306836 -10.67292565 12.0674375 -8.5 9.25 C-7.58734375 8.05117187 -7.58734375 8.05117187 -6.65625 6.828125 C-6.1096875 6.22484375 -5.563125 5.6215625 -5 5 C-4.34 5 -3.68 5 -3 5 C-2.690625 4.360625 -2.38125 3.72125 -2.0625 3.0625 C-1 1 -1 1 0 0 Z " fill="#8F93A1" transform="translate(82,86)"/>
<path d="M0 0 C-0.33 0.99 -0.66 1.98 -1 3 C-3.29141286 3.05384521 -5.58318188 3.09272087 -7.875 3.125 C-9.78925781 3.15980469 -9.78925781 3.15980469 -11.7421875 3.1953125 C-15 3 -15 3 -17 1 C-15.73542969 1.01740234 -15.73542969 1.01740234 -14.4453125 1.03515625 C-13.34960938 1.04417969 -12.25390625 1.05320312 -11.125 1.0625 C-9.48917969 1.07990234 -9.48917969 1.07990234 -7.8203125 1.09765625 C-4.79973768 0.99306571 -3.04879226 0 0 0 Z " fill="#503F38" transform="translate(290,323)"/>
<path d="M0 0 C2.475 0.495 2.475 0.495 5 1 C5 5.29 5 9.58 5 14 C2.42853943 11.42853943 2.19882003 9.3949583 1.375 5.875 C1.11460938 4.77929688 0.85421875 3.68359375 0.5859375 2.5546875 C0.39257812 1.71164062 0.19921875 0.86859375 0 0 Z " fill="#5F6373" transform="translate(21,312)"/>
<path d="M0 0 C0.66 0.33 1.32 0.66 2 1 C-1.30015998 5.13937592 -4.17324411 8.58662205 -9 11 C-8 9 -7 7 -6 5 C-5.34 5 -4.68 5 -4 5 C-4 4.34 -4 3.68 -4 3 C-2 1.375 -2 1.375 0 0 Z " fill="#906E34" transform="translate(261,227)"/>
<path d="M0 0 C1.05960937 0.00676758 1.05960937 0.00676758 2.140625 0.01367188 C3.88545275 0.02546125 5.630237 0.04339676 7.375 0.0625 C7.375 0.3925 7.375 0.7225 7.375 1.0625 C5.98474609 1.15337891 5.98474609 1.15337891 4.56640625 1.24609375 C2.77009766 1.37177734 2.77009766 1.37177734 0.9375 1.5 C-0.25746094 1.58121094 -1.45242188 1.66242188 -2.68359375 1.74609375 C-5.51070244 1.73906114 -5.51070244 1.73906114 -6.625 3.0625 C-8.95797433 3.10342937 -11.29205225 3.10491723 -13.625 3.0625 C-8.75827604 0.62913802 -5.46782928 -0.0655736 0 0 Z " fill="#777B8B" transform="translate(428.625,372.9375)"/>
<path d="M0 0 C1.60488281 -0.03867187 1.60488281 -0.03867187 3.2421875 -0.078125 C6.125 0.25 6.125 0.25 8.0078125 1.765625 C8.37648438 2.25546875 8.74515625 2.7453125 9.125 3.25 C7.20802063 3.10833643 5.29142277 2.96150416 3.375 2.8125 C2.30765625 2.73128906 1.2403125 2.65007812 0.140625 2.56640625 C-2.31179962 2.30909227 -4.51421291 1.93187782 -6.875 1.25 C-5.07228218 -0.55271782 -2.43091251 0.03497716 0 0 Z " fill="#7C5F37" transform="translate(342.875,298.75)"/>
<path d="M0 0 C0.33 0.66 0.66 1.32 1 2 C0.67 2.66 0.34 3.32 0 4 C-0.66 4 -1.32 4 -2 4 C-2.2475 4.9075 -2.495 5.815 -2.75 6.75 C-4.03981342 10.10351489 -5.31971042 11.67708236 -8 14 C-6.78065514 9.96678237 -5.44045073 6.45730521 -3 3 C-2.34 3 -1.68 3 -1 3 C-0.67 2.01 -0.34 1.02 0 0 Z " fill="#4D526B" transform="translate(62,111)"/>
<path d="M0 0 C5.85272256 0.45020943 10.08220119 3.03839227 15 6 C12 7 12 7 9.08203125 5.78515625 C7.46361328 4.93244141 7.46361328 4.93244141 5.8125 4.0625 C4.72582031 3.49660156 3.63914062 2.93070312 2.51953125 2.34765625 C1.68808594 1.90292969 0.85664063 1.45820312 0 1 C0 0.67 0 0.34 0 0 Z " fill="#363B51" transform="translate(336,81)"/>
<path d="M0 0 C4.05606165 0.46800711 7.46588679 0.87953208 11 3 C11 3.33 11 3.66 11 4 C6.35108046 4.32434322 3.77593392 3.776422 0 1 C0 0.67 0 0.34 0 0 Z " fill="#663249" transform="translate(374,239)"/>
<path d="M0 0 C0.33 0.66 0.66 1.32 1 2 C1.66 2 2.32 2 3 2 C3.50367757 3.45706726 4.00282556 4.91570096 4.5 6.375 C4.91765625 7.59316406 4.91765625 7.59316406 5.34375 8.8359375 C6 11 6 11 6 13 C5.34 13 4.68 13 4 13 C3.71125 11.88625 3.4225 10.7725 3.125 9.625 C2.30758671 5.99708908 2.30758671 5.99708908 0 4 C0 2.68 0 1.36 0 0 Z " fill="#31374E" transform="translate(453,80)"/>
<path d="M0 0 C4.97093824 0.41153737 9.44508386 0.79600832 14 3 C14 3.33 14 3.66 14 4 C8.34605369 4.34615998 4.96993194 3.43425238 0 1 C0 0.67 0 0.34 0 0 Z " fill="#5C6176" transform="translate(328,6)"/>
<path d="M0 0 C-1.70828921 2.10633718 -2.52148416 2.93801608 -5.26171875 3.29296875 C-6.06222656 3.25816406 -6.86273438 3.22335937 -7.6875 3.1875 C-8.49574219 3.16042969 -9.30398438 3.13335937 -10.13671875 3.10546875 C-10.75160156 3.07066406 -11.36648438 3.03585937 -12 3 C-8.61613364 -0.38386636 -4.56431325 -1.75550509 0 0 Z " fill="#74798A" transform="translate(333,433)"/>
<path d="M0 0 C0.99 0 1.98 0 3 0 C1.84826645 2.46800047 0.95216435 4.04783565 -1 6 C-1.99 6 -2.98 6 -4 6 C-3.34 4.68 -2.68 3.36 -2 2 C-1.34 2 -0.68 2 0 2 C0 1.34 0 0.68 0 0 Z " fill="#8E919F" transform="translate(113,55)"/>
<path d="M0 0 C0.66 0.33 1.32 0.66 2 1 C-2.39453125 5.00390625 -2.39453125 5.00390625 -4 6 C-4.99 5.67 -5.98 5.34 -7 5 C-4.69 3.35 -2.38 1.7 0 0 Z " fill="#5E9788" transform="translate(145,260)"/>
<path d="M0 0 C0.33 0.99 0.66 1.98 1 3 C-0.8125 4.5625 -0.8125 4.5625 -3 6 C-3.99 5.67 -4.98 5.34 -6 5 C-5.01 4.67 -4.02 4.34 -3 4 C-3 3.34 -3 2.68 -3 2 C-2.01 1.34 -1.02 0.68 0 0 Z " fill="#9A9EAF" transform="translate(381,404)"/>
</svg>
