<?xml version="1.0" encoding="UTF-8"?>
<svg version="1.1" xmlns="http://www.w3.org/2000/svg" width="200" height="200">
<path d="M0 0 C66 0 132 0 200 0 C200 66 200 132 200 200 C134 200 68 200 0 200 C0 134 0 68 0 0 Z " fill="#15B688" transform="translate(0,0)"/>
<path d="M0 0 C-0.875 4.875 -0.875 4.875 -2 6 C-0.94941406 6.24234375 0.10117188 6.4846875 1.18359375 6.734375 C21.15994705 11.45164236 36.60454271 19.80684415 47.84057617 37.57324219 C55.94887723 50.90380868 58.35176762 63.05997289 58.3125 78.5 C58.32861328 79.76714844 58.34472656 81.03429687 58.36132812 82.33984375 C58.3650885 89.56728633 57.759005 95.30267915 55 102 C53.046875 101.1328125 53.046875 101.1328125 51 100 C50.25 97.875 50.25 97.875 50 96 C49.87044922 96.93005859 49.87044922 96.93005859 49.73828125 97.87890625 C47.91096046 109.39605654 45.12641344 121.25921853 37 130 C33.125 129.125 33.125 129.125 32 128 C31.92820036 126.48071962 31.91607993 124.95832518 31.9375 123.4375 C31.94652344 122.61121094 31.95554687 121.78492188 31.96484375 120.93359375 C31.97644531 120.29550781 31.98804688 119.65742188 32 119 C30.02 118.505 30.02 118.505 28 118 C27.48050781 118.7940625 26.96101563 119.588125 26.42578125 120.40625 C25.72839844 121.4271875 25.03101563 122.448125 24.3125 123.5 C23.62800781 124.5209375 22.94351563 125.541875 22.23828125 126.59375 C20 129 20 129 17.46875 129.6875 C13.83462609 128.67546549 13.04528649 126.70559237 11.1875 123.5 C10.58292969 122.4790625 9.97835937 121.458125 9.35546875 120.40625 C8.90816406 119.6121875 8.46085937 118.818125 8 118 C4.08325131 118.22940957 2.4575118 118.50856922 -0.265625 121.43359375 C-0.92046875 122.42488281 -1.5753125 123.41617188 -2.25 124.4375 C-5.97609562 129.97609562 -5.97609562 129.97609562 -8 132 C-10.89453125 131.96484375 -10.89453125 131.96484375 -14 131 C-16.01171875 128.56640625 -16.01171875 128.56640625 -17.6875 125.5625 C-20.14285201 121.15894029 -20.14285201 121.15894029 -24 118 C-25.32 118 -26.64 118 -28 118 C-29.98801517 120.73963612 -31.50407851 123.6223438 -33.12109375 126.59375 C-35 129 -35 129 -37.453125 129.6875 C-41.17391342 128.6831154 -42.19811438 126.65365991 -44.3125 123.5 C-45.00988281 122.4790625 -45.70726562 121.458125 -46.42578125 120.40625 C-46.94527344 119.6121875 -47.46476562 118.818125 -48 118 C-49.98 118.495 -49.98 118.495 -52 119 C-51.97679688 119.62648438 -51.95359375 120.25296875 -51.9296875 120.8984375 C-51.90261719 122.12433594 -51.90261719 122.12433594 -51.875 123.375 C-51.85179688 124.18710938 -51.82859375 124.99921875 -51.8046875 125.8359375 C-52 128 -52 128 -54 130 C-55.875 129.9375 -55.875 129.9375 -58 129 C-65.44054992 120.64595682 -67.87330374 109.71993235 -70 99 C-70.99 99.99 -71.98 100.98 -73 102 C-73.99 101.67 -74.98 101.34 -76 101 C-78.49685476 94.3193821 -78.40691844 87.64730784 -78.42553711 80.62402344 C-78.43731994 78.53196972 -78.48647856 76.4429857 -78.53710938 74.3515625 C-78.75568223 56.15403015 -71.67018338 39.2590425 -59.11645508 26.03979492 C-49.35338554 16.13327348 -38.28597312 10.80320798 -24.98046875 7.00390625 C-21.47671117 5.82374151 -18.73551575 4.17422457 -15.69921875 2.10546875 C-11.13965257 -0.8608697 -5.06970896 -2.53485448 0 0 Z " fill="#040404" transform="translate(110,30)"/>
<path d="M0 0 C3.29488655 1.27262814 6.4291382 2.68484844 9.5625 4.3125 C13.3469929 6.2583272 17.13043789 7.79054558 21.125 9.25 C27.25740356 11.7504381 31.4804959 15.36879343 35 21 C35.70703125 23.78125 35.70703125 23.78125 36 26 C34.85724609 25.67515625 34.85724609 25.67515625 33.69140625 25.34375 C22.47554644 22.13004134 22.47554644 22.13004134 11.5625 24.75 C7.89069319 27.97402549 7.13738576 29.51623382 6.6875 34.375 C7.03342755 38.38775961 7.78911764 40.64555779 10 44 C13.81052709 46.81589215 16.68491571 47.38982469 21.375 47.5625 C26.25870487 47.82858154 30.39266806 48.39279118 35 50 C29.676211 61.06464902 21.5654024 67.08291921 10.125 71.375 C-3.58457896 76.08127337 -20.76089158 76.01945515 -34 70 C-37.49178655 68.19871977 -40.76166854 66.22178756 -44 64 C-44.9075 63.401875 -45.815 62.80375 -46.75 62.1875 C-50.13591858 58.89563471 -52.51531259 54.99599213 -55 51 C-54.67 50.34 -54.34 49.68 -54 49 C-50.2912538 48.48857943 -46.60797939 48.1611933 -42.87695312 47.87695312 C-37.97779569 47.43230351 -34.2524232 46.69298295 -30 44 C-27.04544732 39.66665607 -26.4339071 36.18918491 -27 31 C-28.28621379 28.02139964 -29.606797 26.35634022 -32 24.1875 C-39.66839728 21.15209274 -46.6877716 22.99676333 -54 26 C-54.99 25.67 -55.98 25.34 -57 25 C-53.56804753 17.83766441 -48.57621088 12.06025763 -41.21484375 8.74609375 C-39.35020842 8.09206073 -37.47501176 7.46725475 -35.58984375 6.875 C-33.14925593 6.05042734 -31.14097258 5.06933493 -28.9375 3.75 C-26 2 -26 2 -24 2 C-23.505 6.95 -23.505 6.95 -23 12 C-21.35 12 -19.7 12 -18 12 C-17.731875 11.360625 -17.46375 10.72125 -17.1875 10.0625 C-16 8 -16 8 -13 7 C-12.75765625 7.78246094 -12.5153125 8.56492187 -12.265625 9.37109375 C-11.93046875 10.38300781 -11.5953125 11.39492187 -11.25 12.4375 C-10.76273438 13.95150391 -10.76273438 13.95150391 -10.265625 15.49609375 C-9.84796875 16.32238281 -9.4303125 17.14867188 -9 18 C-6.96847006 18.69045481 -6.96847006 18.69045481 -5 19 C-4.80664062 17.79601562 -4.61328125 16.59203125 -4.4140625 15.3515625 C-4.15146395 13.77597123 -3.88841999 12.20045415 -3.625 10.625 C-3.43550781 9.43390625 -3.43550781 9.43390625 -3.2421875 8.21875 C-3.11328125 7.45820312 -2.984375 6.69765625 -2.8515625 5.9140625 C-2.73635254 5.2123291 -2.62114258 4.5105957 -2.50244141 3.78759766 C-2 2 -2 2 0 0 Z " fill="#F9F9F9" transform="translate(110,64)"/>
<path d="M0 0 C2.6875 1.6875 2.6875 1.6875 4 4 C4.25 6.75 4.25 6.75 4 9 C5.155 9 6.31 9 7.5 9 C18.55079994 10.22398101 29.94626092 17.69982715 38 25 C38.73347656 25.63035156 39.46695313 26.26070312 40.22265625 26.91015625 C53.54524527 39.13585972 61.86354787 57.80181077 63.20532227 75.74584961 C63.30261993 78.60480836 63.32904044 81.45196307 63.3125 84.3125 C63.30512817 85.81937378 63.30512817 85.81937378 63.29760742 87.35668945 C63.05911336 102.51635017 63.05911336 102.51635017 60 109 C55.83919598 113 55.83919598 113 52 113 C51.88269531 113.69222656 51.76539063 114.38445312 51.64453125 115.09765625 C49.65023555 124.0780302 46.17136629 132.82863371 39.625 139.375 C36.33796222 141.40983291 34.80362207 141.69862446 31 141 C28.73699961 139.51023437 26.97752359 137.8833558 25 136 C24.525625 136.66 24.05125 137.32 23.5625 138 C20.33188895 140.52145252 18.28517309 140.75050987 14.2578125 140.59765625 C10.18370035 139.5192148 8.17631058 136.43546171 6 133 C5.67 132.34 5.34 131.68 5 131 C1.5520365 132.14932117 1.03232162 132.98529269 -1 135.875 C-5.78846784 142.63372283 -5.78846784 142.63372283 -9.015625 143.609375 C-11.60181843 143.77214242 -13.50071925 143.73361972 -16 143 C-18.88949819 140.33904969 -20.92970422 137.3205021 -23 134 C-23.66 133.01 -24.32 132.02 -25 131 C-29.01412909 132.33804303 -29.73005954 134.52415367 -32 138 C-35.67790669 140.45193779 -38.72592275 140.71511798 -43 140 C-46 138 -46 138 -48 136 C-48.70125 136.825 -49.4025 137.65 -50.125 138.5 C-53 141 -53 141 -55.875 141.6875 C-60.54074292 140.66103656 -63.07829235 138.77524022 -66 135 C-68.32955734 130.44217041 -70.19038025 125.79016993 -72 121 C-72.38542969 120.09378906 -72.77085938 119.18757813 -73.16796875 118.25390625 C-74 116 -74 116 -74 113 C-75.11375 112.9071875 -75.11375 112.9071875 -76.25 112.8125 C-80.05526279 111.68821781 -80.97842911 110.4157577 -83 107 C-89.08534673 85.94959231 -85.43462805 62.47553821 -75.06640625 43.5234375 C-72.450692 38.96313828 -69.54400189 34.88815083 -66 31 C-65.27296875 30.18144531 -64.5459375 29.36289062 -63.796875 28.51953125 C-54.41775057 18.5201744 -44.28083702 13.07061113 -31.40161133 9.0859375 C-26.51910522 7.56700553 -22.17705823 5.8157599 -17.82421875 3.078125 C-12.06470075 -0.32578714 -6.57279881 -0.81907185 0 0 Z M-15.0625 7.3125 C-16.06410156 7.74175781 -17.06570312 8.17101562 -18.09765625 8.61328125 C-20.97648362 9.92013318 -20.97648362 9.92013318 -23.421875 11.5234375 C-26.57554137 13.32962824 -29.70994855 14.26382904 -33.1875 15.3125 C-49.14878721 20.42166249 -63.14165926 31.58241036 -70.9453125 46.6171875 C-72.77683703 50.35347876 -74.50361448 54.11638833 -76 58 C-76.28101563 58.70237793 -76.56203125 59.40475586 -76.8515625 60.12841797 C-79.39423596 67.32412359 -79.45868085 74.45216617 -79.39111328 81.98681641 C-79.37497308 84.12857213 -79.39106452 86.26845619 -79.41015625 88.41015625 C-79.41945487 95.52731959 -79.17251545 101.53746852 -76 108 C-73.3094472 106.77992056 -73.3094472 106.77992056 -71 105 C-70.76925781 105.95519531 -70.53851563 106.91039062 -70.30078125 107.89453125 C-67.80671027 117.90458904 -65.21804249 128.2472877 -58 136 C-55.24358584 135.50243908 -55.24358584 135.50243908 -53 134 C-52.92820036 132.48071962 -52.91607993 130.95832518 -52.9375 129.4375 C-52.94652344 128.61121094 -52.95554687 127.78492188 -52.96484375 126.93359375 C-52.97644531 126.29550781 -52.98804687 125.65742188 -53 125 C-51.02 124.505 -51.02 124.505 -49 124 C-48.48050781 124.7940625 -47.96101563 125.588125 -47.42578125 126.40625 C-46.72839844 127.4271875 -46.03101563 128.448125 -45.3125 129.5 C-44.28576172 131.03140625 -44.28576172 131.03140625 -43.23828125 132.59375 C-41.23082766 135.17652523 -41.23082766 135.17652523 -38.46875 135.6875 C-34.83462609 134.67546549 -34.04528649 132.70559237 -32.1875 129.5 C-31.58292969 128.4790625 -30.97835937 127.458125 -30.35546875 126.40625 C-29.90816406 125.6121875 -29.46085937 124.818125 -29 124 C-25.32239654 124.25935144 -23.53936417 124.41560154 -20.98828125 127.1796875 C-20.15876953 128.51386719 -20.15876953 128.51386719 -19.3125 129.875 C-16.59081241 134.30347022 -16.59081241 134.30347022 -13 138 C-10.48250172 138.14768913 -10.48250172 138.14768913 -8 137 C-5.98634667 134.86049333 -4.39845017 132.64239925 -2.8515625 130.1484375 C-2.44679688 129.52195312 -2.04203125 128.89546875 -1.625 128.25 C-1.26664062 127.65703125 -0.90828125 127.0640625 -0.5390625 126.453125 C1.72119546 124.31907434 3.98423177 124.31570026 7 124 C7.44730469 124.7940625 7.89460938 125.588125 8.35546875 126.40625 C8.96003906 127.4271875 9.56460938 128.448125 10.1875 129.5 C10.77917969 130.5209375 11.37085937 131.541875 11.98046875 132.59375 C13.77020185 135.18669942 13.77020185 135.18669942 16.46875 135.6875 C20.17599519 134.6805939 21.20516495 132.6431438 23.3125 129.5 C24.00988281 128.4790625 24.70726562 127.458125 25.42578125 126.40625 C25.94527344 125.6121875 26.46476562 124.818125 27 124 C28.98 124.495 28.98 124.495 31 125 C30.97679687 125.62648438 30.95359375 126.25296875 30.9296875 126.8984375 C30.91164063 127.71570313 30.89359375 128.53296875 30.875 129.375 C30.85179687 130.18710938 30.82859375 130.99921875 30.8046875 131.8359375 C30.78629949 134.21342243 30.78629949 134.21342243 33 136 C36.59218232 135.65782367 37.07536709 134.91110845 39.546875 131.99609375 C42.25503132 127.93074883 43.79445065 123.69912899 45.25 119.0625 C45.63285156 117.92264648 45.63285156 117.92264648 46.0234375 116.75976562 C47.62210444 111.83334724 48.50734019 107.15533299 49 102 C49.66 103.65 50.32 105.3 51 107 C52.32 107 53.64 107 55 107 C57.33485543 99.59543856 57.33221747 92.47135983 57.3125 84.75 C57.32861328 83.50347656 57.34472656 82.25695312 57.36132812 80.97265625 C57.36717841 69.77521406 55.51357329 59.83181835 50.3125 49.875 C49.96437256 49.19759766 49.61624512 48.52019531 49.25756836 47.82226562 C40.54645807 31.38339952 27.18615658 20.85039997 9.7265625 14.8125 C5.53890664 13.56460255 1.30852535 12.71029919 -3 12 C-2.34 11.01 -1.68 10.02 -1 9 C-1 8.01 -1 7.02 -1 6 C-5.82702172 3.58648914 -10.4031378 5.27440479 -15.0625 7.3125 Z " fill="#E5F1EF" transform="translate(111,24)"/>
<path d="M0 0 C2.6875 1.6875 2.6875 1.6875 4 4 C4.25 6.75 4.25 6.75 4 9 C5.155 9 6.31 9 7.5 9 C18.55079994 10.22398101 29.94626092 17.69982715 38 25 C38.73347656 25.63035156 39.46695313 26.26070312 40.22265625 26.91015625 C51.44871067 37.2119386 59.85721791 52.86933461 62 68 C62.13745952 71.20960595 62.13960043 74.41290473 62.125 77.625 C62.12886719 78.48351562 62.13273438 79.34203125 62.13671875 80.2265625 C62.13478516 81.4640625 62.13478516 81.4640625 62.1328125 82.7265625 C62.13168457 83.47502441 62.13055664 84.22348633 62.12939453 84.99462891 C62 87 62 87 61 90 C60.01 90.33 59.02 90.66 58 91 C57.96132813 89.43765625 57.96132813 89.43765625 57.921875 87.84375 C57.12077827 64.92483114 50.29101828 44.3084968 33.1875 28.25 C22.52564902 19.39983073 9.53142137 14.98914511 -4 13 C-3.01 10.69 -2.02 8.38 -1 6 C-9.28431592 5.20343116 -16.43222825 8.11742559 -23.4140625 12.5234375 C-26.571425 14.32628195 -29.70840834 15.26336459 -33.1875 16.3125 C-48.08875946 21.08235063 -58.94187042 30.31261983 -68 43 C-68.99 42.34 -69.98 41.68 -71 41 C-70.33333333 39.66666667 -69.66666667 38.33333333 -69 37 C-68.57074219 36.0615625 -68.14148438 35.123125 -67.69921875 34.15625 C-60.306605 20.42468238 -45.61408467 13.48310152 -31.40161133 9.0859375 C-26.51910522 7.56700553 -22.17705823 5.8157599 -17.82421875 3.078125 C-12.06470075 -0.32578714 -6.57279881 -0.81907185 0 0 Z " fill="#EBF6F5" transform="translate(111,24)"/>
<path d="M0 0 C0.99 0 1.98 0 3 0 C3.66 1.65 4.32 3.3 5 5 C7.31 5.33 9.62 5.66 12 6 C12 4.68 12 3.36 12 2 C13.65 2 15.3 2 17 2 C17.33 2.99 17.66 3.98 18 5 C20.33071879 5.41870553 20.33071879 5.41870553 23 5 C25.33630748 2.60140956 25.33630748 2.60140956 27 0 C27.99 0.33 28.98 0.66 30 1 C29.78233948 4.80905906 29.00605451 5.99366389 26.3125 8.8125 C22.69826345 11.19925999 21.21793234 11.56239098 17 11 C16.01 10.67 15.02 10.34 14 10 C13.01 10.495 13.01 10.495 12 11 C7.80345391 11.57225628 6.28067826 11.18535357 2.6875 8.8125 C0.00457086 6.00478346 -0.89386105 4.82100238 -1 1 C-0.67 0.67 -0.34 0.34 0 0 Z " fill="#1B1B1B" transform="translate(85,113)"/>
<path d="M0 0 C3.4375 0.75 3.4375 0.75 5.4375 2.75 C5.7642107 5.82108055 5.91888276 7.90050101 4.375 10.625 C1.29678089 12.41235303 -1.09156068 12.18386742 -4.5625 11.75 C-6.5625 10.125 -6.5625 10.125 -7.5625 7.75 C-7.4375 4.625 -7.4375 4.625 -6.5625 1.75 C-3.5625 -0.25 -3.5625 -0.25 0 0 Z " fill="#0D0D0D" transform="translate(100.5625,99.25)"/>
<path d="M0 0 C0.33 1.65 0.66 3.3 1 5 C0.071875 5.12375 0.071875 5.12375 -0.875 5.25 C-3.18437567 5.81258459 -3.18437567 5.81258459 -4.25 8.0625 C-4.4975 8.701875 -4.745 9.34125 -5 10 C-8.875 9.125 -8.875 9.125 -10 8 C-10.26587831 4.94239943 -10.43409881 2.79159195 -8.9375 0.0625 C-5.87530347 -1.61676907 -3.30629059 -0.68621125 0 0 Z " fill="#EEEEEE" transform="translate(132,94)"/>
<path d="M0 0 C0.33 1.65 0.66 3.3 1 5 C0.21625 5.268125 -0.5675 5.53625 -1.375 5.8125 C-4.28114923 6.84814432 -4.28114923 6.84814432 -6 10 C-7.32 9.67 -8.64 9.34 -10 9 C-10.35807422 2.67402207 -10.35807422 2.67402207 -8.9375 0 C-5.86664787 -1.58495594 -3.27813225 -0.68036707 0 0 Z " fill="#F0F0F0" transform="translate(76,94)"/>
<path d="M0 0 C0.33 0 0.66 0 1 0 C1.05878077 3.64576392 1.0938558 7.29140352 1.125 10.9375 C1.14175781 11.95908203 1.15851563 12.98066406 1.17578125 14.03320312 C1.21618815 20.35688352 0.62010013 25.88316527 -1 32 C-1.33 32 -1.66 32 -2 32 C-2.02707139 29.75006641 -2.04642829 27.50003905 -2.0625 25.25 C-2.07410156 23.99703125 -2.08570313 22.7440625 -2.09765625 21.453125 C-2.01783712 18.63072048 -1.70881956 16.66849718 -1 14 C-0.77882441 11.5861824 -0.59427758 9.16885403 -0.4375 6.75 C-0.35371094 5.48671875 -0.26992187 4.2234375 -0.18359375 2.921875 C-0.12300781 1.95765625 -0.06242188 0.9934375 0 0 Z " fill="#B7ECE0" transform="translate(173,97)"/>
<path d="M0 0 C0.99 0.33 1.98 0.66 3 1 C2.65544802 4.10096781 2.15182706 5.79937138 0.25 8.3125 C-2.41238939 10.30929204 -3.74952319 10.36116409 -7 10 C-7.33 9.01 -7.66 8.02 -8 7 C-7.236875 6.5875 -6.47375 6.175 -5.6875 5.75 C-3.0633358 4.04124191 -1.69678024 2.58982247 0 0 Z " fill="#0C0C0C" transform="translate(112,113)"/>
<path d="M0 0 C0 0.66 0 1.32 0 2 C-3.92898436 3.77438003 -7.80040329 4.6447818 -12.01171875 5.4375 C-14.21008363 5.88480947 -14.21008363 5.88480947 -16 8 C-18.125 7.625 -18.125 7.625 -20 7 C-6.96183206 0 -6.96183206 0 0 0 Z " fill="#D3FAF3" transform="translate(83,33)"/>
<path d="M0 0 C0.33 0 0.66 0 1 0 C1.02705729 1.77074917 1.04642195 3.54161711 1.0625 5.3125 C1.07410156 6.29863281 1.08570313 7.28476563 1.09765625 8.30078125 C1 11 1 11 0 14 C-0.99 14.33 -1.98 14.66 -3 15 C-3 12.69 -3 10.38 -3 8 C-2.34 8 -1.68 8 -1 8 C-0.67 5.36 -0.34 2.72 0 0 Z " fill="#F5FDFC" transform="translate(172,100)"/>
<path d="M0 0 C1.32 0.66 2.64 1.32 4 2 C3.38125 2.680625 2.7625 3.36125 2.125 4.0625 C-0.3319068 7.45881234 -1.04945605 9.96018821 -2 14 C-2.66 13.67 -3.32 13.34 -4 13 C-3.52140759 11.39566191 -3.04210442 9.79153584 -2.5625 8.1875 C-2.29566406 7.29417969 -2.02882812 6.40085938 -1.75390625 5.48046875 C-1.19612127 3.64526945 -0.60655425 1.81966274 0 0 Z " fill="#32B38D" transform="translate(163,137)"/>
<path d="M0 0 C0 0.33 0 0.66 0 1 C-1.175625 1.12375 -2.35125 1.2475 -3.5625 1.375 C-6.48411821 1.72662839 -8.8928529 2.26785587 -11.75 3.125 C-14.979584 3.99450339 -15.95927503 3.93865858 -19 3 C-12.47059106 0.04328652 -7.12600133 -0.35368021 0 0 Z " fill="#BFF2E6" transform="translate(111,24)"/>
<path d="M0 0 C0.33 0.66 0.66 1.32 1 2 C1.66 2.33 2.32 2.66 3 3 C0.19195732 5.96404505 -2.18315774 8.44499019 -6 10 C-4.34832443 6.4213696 -2.21713508 3.25179812 0 0 Z " fill="#2DB48C" transform="translate(112,156)"/>
<path d="M0 0 C0.99 0.33 1.98 0.66 3 1 C2.67 1.66 2.34 2.32 2 3 C1.34 3 0.68 3 0 3 C-0.2475 3.61875 -0.495 4.2375 -0.75 4.875 C-2 7 -2 7 -6 9 C-4.02 6.03 -2.04 3.06 0 0 Z " fill="#33B18C" transform="translate(84,154)"/>
<path d="M0 0 C-2 2 -2 2 -4.1640625 2.1953125 C-5.38222656 2.16050781 -5.38222656 2.16050781 -6.625 2.125 C-7.44226563 2.10695312 -8.25953125 2.08890625 -9.1015625 2.0703125 C-9.72804688 2.04710937 -10.35453125 2.02390625 -11 2 C-11 1.34 -11 0.68 -11 0 C-3.375 -1.125 -3.375 -1.125 0 0 Z " fill="#CEFBF3" transform="translate(106,165)"/>
<path d="M0 0 C0.66 0 1.32 0 2 0 C0.84414715 3.91211733 -0.35534962 6.8745041 -3 10 C-2.25 3.375 -2.25 3.375 0 0 Z " fill="#D7FBF4" transform="translate(157,149)"/>
<path d="M0 0 C1.32 0.33 2.64 0.66 4 1 C1.66666667 3.33333333 -0.66666667 5.66666667 -3 8 C-3 6.68 -3 5.36 -3 4 C-2.34 4 -1.68 4 -1 4 C-0.67 2.68 -0.34 1.36 0 0 Z " fill="#D4F8F2" transform="translate(82,153)"/>
</svg>
